<!-- Generator: Adobe Illustrator 21.1.0, SVG Export Plug-In  -->
<svg version="1.1"
	 xmlns="http://www.w3.org/2000/svg" xmlns:xlink="http://www.w3.org/1999/xlink" xmlns:a="http://ns.adobe.com/AdobeSVGViewerExtensions/3.0/"
	 x="0px" y="0px" width="975.2px" height="166.8px" viewBox="0 0 975.2 166.8" style="enable-background:new 0 0 975.2 166.8;"
	 xml:space="preserve">
<style type="text/css">
	.st0{fill:url(#SVGID_1_);}
	.st1{fill:url(#SVGID_2_);}
</style>
<defs>
</defs>
<linearGradient id="SVGID_1_" gradientUnits="userSpaceOnUse" x1="487.614" y1="166.7876" x2="487.614" y2="-9.094947e-13">
	<stop  offset="0" style="stop-color:#0096FF"/>
	<stop  offset="1" style="stop-color:#154B97"/>
</linearGradient>
<path class="st0" d="M0,2.9h25.5c14.1,0,20.4,10.2,20.4,20.3c0,10.3-6.3,20.2-20.4,20.2H13.2v21.4H0V2.9z M13.2,14.5v17.5h11.6
	c5.1,0,7.8-4.7,7.8-8.7c0-3.9-2.5-8.7-7.5-8.7H13.2z M66.2,0v64.9H53.7V0H66.2z M108.9,60.1c-2.7,4.1-9,5.6-12.2,5.6
	c-10.7,0-21.4-8.4-21.4-21.9S85.9,22,96.7,22c2.7,0,9,0.9,12.2,5.6v-4.7h12.4v42h-12.4V60.1z M98.7,53.8c5.1,0,10.2-3.7,10.2-10
	s-5-10-10.2-10c-5.2,0-10.5,4-10.5,10S93.5,53.8,98.7,53.8z M146.7,85.5h-13.2l10.1-24.9l-16.2-37.7h13.3l9.3,23.8l9.4-23.8h13.3
	L146.7,85.5z M216.4,57.2c-4.2,6.3-12.1,8.5-19.2,8.5c-12.1,0-22-8.8-22-22c0-13.2,9.9-21.8,22-21.8c12,0,21.5,8.9,21.5,22.1
	c0,1.1-0.1,2.8-0.2,3.9h-30.8c0.6,4.9,5.9,7,10.3,7c3.4,0,7.1-1.3,9.2-4L216.4,57.2z M206.2,40.1c-0.6-5.1-5.3-7.2-8.8-7.2
	s-8.3,1.9-9.4,7.2H206.2z M239.8,64.9h-12.5v-42h12.5V33c2.2-7.8,7.6-11.1,11.9-11.1c3,0,5.2,0.5,7.2,1.5l-2.2,11.2
	c-2.2-1.1-4.4-1.3-6.4-1.3c-7.2,0-10.4,5.7-10.4,16.7V64.9z M275.9,47.6c-12.6-3.4-12.7-9.8-12.6-13.7c0.1-6.2,7.6-12,16.4-12
	c8.4,0,17.2,3.7,17.3,13.9h-11.8c-0.1-3.1-2.8-3.7-4.8-3.7c-2.7,0-4.5,1.3-4.4,3.1c0.1,1.3,1.2,2.5,3.7,3.1l7.1,1.9
	c10.2,2.8,11.4,9.5,11.4,12.2c0,8.9-9.4,13.1-18.2,13.1c-8.5,0-17.5-5.1-17.5-14.5h11.7c0.1,2.4,2.8,4.9,6.2,4.9
	c2.8-0.1,5.1-1.4,5.1-3.5c0-1.8-1.1-2.8-4.1-3.6L275.9,47.6z M360.2,60.1c-2.7,4.1-9,5.6-12.2,5.6c-10.7,0-21.4-8.4-21.4-21.9
	S337.2,22,347.9,22c2.7,0,9,0.9,12.2,5.6v-4.7h12.4v42h-12.4V60.1z M350,53.8c5.1,0,10.2-3.7,10.2-10s-5-10-10.2-10
	c-5.2,0-10.5,4-10.5,10S344.8,53.8,350,53.8z M396.6,64.9h-12.5v-42h12.5V33c2.2-7.8,7.6-11.1,11.9-11.1c3,0,5.2,0.5,7.2,1.5
	l-2.2,11.2c-2.2-1.1-4.4-1.3-6.4-1.3c-7.2,0-10.4,5.7-10.4,16.7V64.9z M460.1,57.2c-4.2,6.3-12.1,8.5-19.2,8.5c-12.1,0-22-8.8-22-22
	c0-13.2,9.9-21.8,22-21.8c12,0,21.5,8.9,21.5,22.1c0,1.1-0.1,2.8-0.2,3.9h-30.8c0.6,4.9,5.9,7,10.3,7c3.4,0,7.1-1.3,9.2-4
	L460.1,57.2z M449.8,40.1c-0.6-5.1-5.3-7.2-8.8-7.2s-8.3,1.9-9.4,7.2H449.8z M503.8,47.6c-12.6-3.4-12.7-9.8-12.6-13.7
	c0.1-6.2,7.6-12,16.4-12c8.4,0,17.2,3.7,17.3,13.9h-11.8c-0.1-3.1-2.8-3.7-4.8-3.7c-2.7,0-4.5,1.3-4.4,3.1c0.1,1.3,1.2,2.5,3.7,3.1
	l7.1,1.9c10.2,2.8,11.4,9.5,11.4,12.2c0,8.9-9.4,13.1-18.2,13.1c-8.5,0-17.5-5.1-17.5-14.5h11.7c0.1,2.4,2.8,4.9,6.2,4.9
	c2.8-0.1,5.1-1.4,5.1-3.5c0-1.8-1.1-2.8-4.1-3.6L503.8,47.6z M566.1,60.1c-2.7,4.1-9,5.6-12.2,5.6c-10.7,0-21.4-8.4-21.4-21.9
	S543.1,22,553.9,22c2.7,0,9,0.9,12.2,5.6v-4.7h12.4v42h-12.4V60.1z M555.9,53.8c5.1,0,10.2-3.7,10.2-10s-5-10-10.2-10
	c-5.2,0-10.5,4-10.5,10S550.7,53.8,555.9,53.8z M617.8,12h-4.6c-4.3,0-6.4,3.1-6.4,8v2.9h8.5v9.9h-8.5v32.1h-12.6V32.8h-7.9v-9.9
	h7.9V20c0-12.9,6.9-20,19-20h4.6V12z M661,57.2c-4.2,6.3-12.1,8.5-19.2,8.5c-12.1,0-22-8.8-22-22c0-13.2,9.9-21.8,22-21.8
	c12,0,21.5,8.9,21.5,22.1c0,1.1-0.1,2.8-0.2,3.9h-30.8c0.6,4.9,5.9,7,10.3,7c3.4,0,7.1-1.3,9.2-4L661,57.2z M650.8,40.1
	c-0.6-5.1-5.3-7.2-8.8-7.2s-8.3,1.9-9.4,7.2H650.8z M682.8,47.6c-12.6-3.4-12.7-9.8-12.6-13.7c0.1-6.2,7.6-12,16.4-12
	c8.4,0,17.2,3.7,17.3,13.9h-11.8c-0.1-3.1-2.8-3.7-4.8-3.7c-2.7,0-4.5,1.3-4.4,3.1c0.1,1.3,1.2,2.5,3.7,3.1l7.1,1.9
	c10.2,2.8,11.4,9.5,11.4,12.2c0,8.9-9.4,13.1-18.2,13.1c-8.5,0-17.5-5.1-17.5-14.5h11.7c0.1,2.4,2.8,4.9,6.2,4.9
	c2.8-0.1,5.1-1.4,5.1-3.5c0-1.8-1.1-2.8-4.1-3.6L682.8,47.6z M739.2,22.9v9.9h-8.8v32.1h-12.4V32.8h-7.6v-9.9h7.6V6.7h12.4v16.1
	H739.2z M812.1,64.9h-10.4l-8.3-26.7l-7.9,26.7h-10.4l-15.2-42h13.3l7.5,25l7.4-25h10.7l7.4,25l7.5-25h13.3L812.1,64.9z M846.1,64.9
	h-12.5V0h12.5v29.4c1.7-5.2,7.8-7.5,11.8-7.5c11.1,0,16.8,7.4,16.8,20.1v22.9c-2.1,0-10.4,0-12.5,0V42.5c0-5.5-4-8.4-7.7-8.4
	c-4,0-8.4,2.2-8.4,8.5V64.9z M924.3,57.2c-4.2,6.3-12.1,8.5-19.2,8.5c-12.1,0-22-8.8-22-22c0-13.2,9.9-21.8,22-21.8
	c12,0,21.5,8.9,21.5,22.1c0,1.1-0.1,2.8-0.2,3.9h-30.8c0.6,4.9,5.9,7,10.3,7c3.4,0,7.1-1.3,9.2-4L924.3,57.2z M914,40.1
	c-0.6-5.1-5.3-7.2-8.8-7.2s-8.3,1.9-9.4,7.2H914z M947.7,64.9h-12.5v-42h12.5V29c2.2-4.2,7.2-7,12.1-7c9.4,0,15.4,5.8,15.4,17.8
	v25.1c-2.1,0-10.5,0-12.5,0V42.5c0-5.6-3.1-8.4-7.3-8.4c-4.4,0-7.7,2.2-7.7,8.5V64.9z M175.7,123.9v9.9h-8.8v32.1h-12.4v-32.1h-7.6
	v-9.9h7.6v-16.1h12.4v16.1H175.7z M195.9,165.9h-12.5V101h12.5v29.4c1.7-5.2,7.8-7.5,11.8-7.5c11.1,0,16.8,7.4,16.8,20.1v22.9
	c-2.1,0-10.4,0-12.5,0v-22.4c0-5.5-4-8.4-7.7-8.4c-4,0-8.4,2.2-8.4,8.5V165.9z M274.1,158.2c-4.2,6.3-12.1,8.5-19.2,8.5
	c-12.1,0-22-8.8-22-22s9.9-21.8,22-21.8c12,0,21.5,8.9,21.5,22.1c0,1.1-0.1,2.8-0.2,3.9h-30.8c0.6,4.9,5.9,7,10.3,7
	c3.4,0,7.1-1.3,9.2-4L274.1,158.2z M263.8,141.1c-0.6-5.1-5.3-7.2-8.8-7.2s-8.3,1.9-9.4,7.2H263.8z M291.2,101
	c4.2,0,7.6,3.1,7.6,7.3s-3.4,7.4-7.6,7.4c-4.2,0-7.8-3.2-7.8-7.4S287,101,291.2,101z M297.4,165.9H285v-42h12.4V165.9z M321.4,165.9
	h-12.5v-42h12.5V134c2.2-7.8,7.6-11.1,11.9-11.1c3,0,5.2,0.5,7.2,1.5l-2.2,11.2c-2.2-1.1-4.4-1.3-6.4-1.3c-7.2,0-10.4,5.7-10.4,16.7
	V165.9z M379.4,165.9h-12.5V101h12.5v29.4c1.7-5.2,7.8-7.5,11.8-7.5c11.1,0,16.8,7.4,16.8,20.1v22.9c-2.1,0-10.4,0-12.5,0v-22.4
	c0-5.5-4-8.4-7.7-8.4c-4,0-8.4,2.2-8.4,8.5V165.9z M457.6,158.2c-4.2,6.3-12.1,8.5-19.2,8.5c-12.1,0-22-8.8-22-22s9.9-21.8,22-21.8
	c12,0,21.5,8.9,21.5,22.1c0,1.1-0.1,2.8-0.2,3.9H429c0.6,4.9,5.9,7,10.3,7c3.4,0,7.1-1.3,9.2-4L457.6,158.2z M447.3,141.1
	c-0.6-5.1-5.3-7.2-8.8-7.2s-8.3,1.9-9.4,7.2H447.3z M481,101v64.9h-12.5V101H481z M531.8,143.7v22.2h-12.5v-22.7
	c-0.1-5.3-3.3-8.1-6.9-8.1c-3.8,0-7.3,2.2-7.3,8.5v22.2h-12.5v-42H505v6.1c2-4.4,6.5-6.9,11-6.9c6.7,0,11.2,2.5,13.5,7.4
	c4-6.6,9.6-7.5,12.6-7.5c10,0,16.2,6.4,16.2,19.1v23.8h-12.4v-22.4c0-5.5-3.2-8.4-6.9-8.4C535,135.1,531.8,137.5,531.8,143.7z
	 M608,158.2c-4.2,6.3-12.1,8.5-19.2,8.5c-12.1,0-22-8.8-22-22s9.9-21.8,22-21.8c12,0,21.5,8.9,21.5,22.1c0,1.1-0.1,2.8-0.2,3.9
	h-30.8c0.6,4.9,5.9,7,10.3,7c3.4,0,7.1-1.3,9.2-4L608,158.2z M597.7,141.1c-0.6-5.1-5.3-7.2-8.8-7.2s-8.3,1.9-9.4,7.2H597.7z
	 M643.7,123.9v9.9h-8.8v32.1h-12.4v-32.1h-7.7v-9.9h7.7v-16.1h12.4v16.1H643.7z M662.3,148.6c-12.6-3.4-12.7-9.8-12.6-13.7
	c0.1-6.2,7.6-12,16.4-12c8.4,0,17.2,3.7,17.3,14h-11.8c-0.1-3.2-2.8-3.7-4.8-3.7c-2.7,0-4.5,1.3-4.4,3.2c0.1,1.3,1.2,2.5,3.7,3.1
	l7.1,1.9c10.2,2.8,11.4,9.5,11.4,12.2c0,8.9-9.4,13.1-18.2,13.1c-8.5,0-17.5-5.1-17.5-14.5h11.7c0.1,2.4,2.8,4.9,6.2,4.9
	c2.8-0.1,5.1-1.4,5.1-3.5c0-1.8-1.1-2.8-4.1-3.6L662.3,148.6z M766.4,165.9H754v-32.1h-21.8v32.1h-12.6v-32.1h-7.9v-9.9h7.9V121
	c0-12.9,6.9-20,19-20h4.6v12h-4.6c-4.3,0-6.4,3.1-6.4,8v2.9h34.2V165.9z M760.2,101c4.2,0,7.6,3.1,7.6,7.3s-3.4,7.4-7.6,7.4
	c-4.2,0-7.8-3.2-7.8-7.4S755.9,101,760.2,101z M803.1,123.9v9.9h-8.8v32.1h-12.4v-32.1h-7.6v-9.9h7.6v-16.1h12.4v16.1H803.1z
	 M815.9,151.8c4.2,0,7.8,3.2,7.8,7.5c0,4.4-3.6,7.6-7.8,7.6c-4.2,0-7.7-3.2-7.7-7.6C808.1,154.9,811.7,151.8,815.9,151.8z"/>
</svg>
