<svg version="1.1"
	 xmlns="http://www.w3.org/2000/svg" xmlns:xlink="http://www.w3.org/1999/xlink" viewBox="0 0 564.7 98.2">


  
  <!-- Text using the #pattern in defs as the fill -->
  <!-- <text x="50%" text-anchor="middle" y="50%" dy="0.4em" fill="url(#pattern)" font-family="Arial, sans-serif" font-weight="800" font-size="50vh">LOADING</text> -->
  <!-- Generator: Adobe Illustrator 21.1.0, SVG Export Plug-In  -->
<style type="text/css">
	.st0{fill:url(#pattern);}
</style>
<path class="st0" d="M0,95.9V0h24.5v36h31.4V0h24.5v95.9H55.9V57.5H24.5v38.4H0L0,95.9z M139,51.1h-32.1c0.5-3.4,4.9-11.4,16.1-11.4
	C134.1,39.7,138.5,47.7,139,51.1L139,51.1z M106.6,67.4h53.5c1.7-13.2-1-24.8-10.1-34.5c-6.7-7.1-16.2-11.4-27.2-11.4
	c-21.9,0-37.7,18.5-37.7,38.6c0,21.4,17.5,38.1,38.1,38.1c7.4,0,14.5-2.2,20.5-6.5c6.1-4.1,11.2-10.4,14.7-18.4h-22
	c-2.6,3.8-6.2,6.7-13.1,6.7C114.8,80.1,107.5,75,106.6,67.4L106.6,67.4z M164.9,0v95.9h21.5V0H164.9L164.9,0z M194,24v71.9h21.5
	V57.7c0-2.2,0-6.1,1.6-9.6c1.6-3.5,4.5-6.3,10.6-6.3c5.4,0,8,2.7,9.5,6.1c1.3,3.2,1.3,7,1.3,8.9v39.1H260V56.6c0-2.1,0-5.7,1.6-8.9
	c1.4-3.2,4.4-6,10.4-6c5.6,0,8.3,2.5,9.6,5.8c1.4,3.2,1.4,7.1,1.4,10.1v38.2h21.5V56.6c0-15.9-1-20.7-7.8-27.9
	c-5.8-6.1-13.9-7.3-18.9-7.3c-7.5,0-13.4,2.7-17.6,6.6c-2.1,1.8-3.8,4-5.2,6.2c-1.3-2.5-2.7-4.4-4.3-6c-5.3-5.6-11.5-6.9-16.5-6.9
	c-7.5,0-12.6,2.5-15.7,5.1c-3.1,2.5-4.4,5.1-4.4,5.1V24H194L194,24z M361.8,51.1h-32.1c0.5-3.4,4.9-11.4,16.1-11.4
	C356.9,39.7,361.3,47.7,361.8,51.1L361.8,51.1z M329.4,67.4H383c1.7-13.2-1-24.8-10.1-34.5c-6.7-7.1-16.2-11.4-27.2-11.4
	c-21.9,0-37.7,18.5-37.7,38.6c0,21.4,17.5,38.1,38.1,38.1c7.4,0,14.5-2.2,20.5-6.5c6.1-4.1,11.2-10.4,14.7-18.4h-22
	c-2.6,3.8-6.2,6.7-13.1,6.7C337.6,80.1,330.3,75,329.4,67.4L329.4,67.4z M427.5,95.8l-3.4-18.5c-1.4,0.4-2.7,0.6-4.1,0.6
	c-3.5,0-6.5-1.6-6.5-6.9V38.1h13.3V20h-13.3V1.3H392V20h-6.9v18.1h6.9v33.7c0,16.2,7,25.9,23.7,25.9
	C423.7,97.7,427.5,95.8,427.5,95.8L427.5,95.8z M436.2,0v95.9h24.5V59.4h26.8V37.8h-26.8V21.5h27.9V0H436.2L436.2,0z M495.6,24v71.9
	h21.5V24H495.6L495.6,24z M495.6,0v16.3h21.5V0H495.6L495.6,0z M564.7,95.8l-3.4-18.5c-1.4,0.4-2.7,0.6-4.1,0.6
	c-3.5,0-6.5-1.6-6.5-6.9V38.1H564V20h-13.4V1.3h-21.5V20h-6.9v18.1h6.9v33.7c0,16.2,7,25.9,23.7,25.9
	C560.9,97.7,564.7,95.8,564.7,95.8L564.7,95.8z"/>


  <defs>  
    <!-- Da gradient -->
    <linearGradient id="gradient" x1="0%" y1="0%" x2="100%" y2="0">
      <stop offset="0%" style="stop-color:#fff;"/>
      <stop offset="25%" style="stop-color:#005ede;"/>
      <stop offset="50%" style="stop-color:#0053d8;"/>
      <stop offset="75%" style="stop-color:#008cf9;"/>
      <stop offset="100%" style="stop-color:#fff;"/>
    </linearGradient>
    
    <!-- Stitch 2 gradients together for seamless animation  -->
    <pattern id="pattern" x="0" y="0" width="300%" height="100%" patternUnits="userSpaceOnUse">
      <rect x="0" y="0" width="150%" height="100%" fill="url(#gradient)">
        <animate attributeType="XML"
                 attributeName="x"
                 from="0" to="150%"
                 dur="2s"
                 repeatCount="indefinite"/>
      </rect>
      <rect x="-150%" y="0" width="150%" height="100%" fill="url(#gradient)">
        <animate attributeType="XML"
                 attributeName="x"
                 from="-150%" to="0"
                 dur="2s"
                 repeatCount="indefinite"/>
      </rect>
    </pattern>

    <!-- Pull in font -->
    <!-- Copied from: https://static.sonos.com/v1/fonts/logo/sonos-logo-regular-webfont.svg -->
    
  </defs>
</svg>