<!-- Generator: Adobe Illustrator 21.1.0, SVG Export Plug-In  -->
<svg version="1.1"
	 xmlns="http://www.w3.org/2000/svg" xmlns:xlink="http://www.w3.org/1999/xlink" xmlns:a="http://ns.adobe.com/AdobeSVGViewerExtensions/3.0/"
	 x="0px" y="0px" width="564.7px" height="98.2px" viewBox="0 0 564.7 98.2" style="enable-background:new 0 0 564.7 98.2;"
	 xml:space="preserve">
<style type="text/css">
	.st0{fill:#1c1c1c;}
</style>
<defs>
</defs>
<g>
	<g>
		<polygon class="st0" points="0,95.9 0,0 24.5,0 24.5,36 55.9,36 55.9,0 80.4,0 80.4,95.9 55.9,95.9 55.9,57.5 24.5,57.5 
			24.5,95.9 0,95.9 		"/>
		<path class="st0" d="M139,51.1c-0.5-3.4-4.9-11.4-16.1-11.4c-11.1,0-15.5,8-16.1,11.4H139L139,51.1z M106.6,67.4
			c0.9,7.6,8.2,12.7,16.6,12.7c6.9,0,10.5-3,13.1-6.7h22c-3.5,8-8.6,14.3-14.7,18.4c-6,4.3-13.1,6.5-20.5,6.5
			c-20.6,0-38.1-16.7-38.1-38.1c0-20.1,15.8-38.6,37.7-38.6c11,0,20.5,4.3,27.2,11.4c9.1,9.7,11.8,21.3,10.1,34.5H106.6L106.6,67.4z
			"/>
		<polygon class="st0" points="164.9,0 186.4,0 186.4,95.9 164.9,95.9 164.9,0 		"/>
	</g>
	<path class="st0" d="M194,24h20.1v7.6c0,0,1.3-2.6,4.4-5.1c3.1-2.6,8.2-5.1,15.7-5.1c4.9,0,11.2,1.3,16.5,6.9c1.6,1.6,3,3.5,4.3,6
		c1.4-2.2,3.1-4.4,5.2-6.2c4.3-3.9,10.1-6.6,17.6-6.6c5.1,0,13.1,1.2,18.9,7.3c6.7,7.1,7.8,11.9,7.8,27.9v39.3H283V57.7
		c0-3,0-6.9-1.4-10.1c-1.3-3.4-4-5.8-9.6-5.8c-6,0-8.9,2.7-10.4,6c-1.6,3.2-1.6,6.9-1.6,8.9v39.3h-21.5V56.8c0-1.9,0-5.7-1.3-8.9
		c-1.4-3.4-4-6.1-9.5-6.1c-6.1,0-9.1,2.8-10.6,6.3c-1.6,3.5-1.6,7.4-1.6,9.6v38.2H194V24L194,24z"/>
	<path class="st0" d="M361.8,51.1c-0.5-3.4-4.9-11.4-16.1-11.4c-11.1,0-15.5,8-16.1,11.4H361.8L361.8,51.1z M329.4,67.4
		c0.9,7.6,8.2,12.7,16.6,12.7c6.9,0,10.5-3,13.1-6.7h22c-3.5,8-8.6,14.3-14.7,18.4c-6,4.3-13.1,6.5-20.5,6.5
		c-20.6,0-38.1-16.7-38.1-38.1c0-20.1,15.8-38.6,37.7-38.6c11,0,20.5,4.3,27.2,11.4c9.1,9.7,11.8,21.3,10.1,34.5H329.4L329.4,67.4z"
		/>
	<g>
		<path class="st0" d="M427.5,95.8c0,0-3.8,1.9-11.8,1.9C399,97.7,392,88,392,71.8V38.1h-6.9V20h6.9V1.3h21.5V20h13.3v18.1h-13.3V71
			c0,5.3,3,6.9,6.5,6.9c1.4,0,2.7-0.3,4.1-0.6L427.5,95.8L427.5,95.8z"/>
		<polygon class="st0" points="436.2,0 488.5,0 488.5,21.5 460.7,21.5 460.7,37.8 487.5,37.8 487.5,59.4 460.7,59.4 460.7,95.9 
			436.2,95.9 436.2,0 		"/>
		<path class="st0" d="M495.6,24h21.5v71.9h-21.5V24L495.6,24z M495.6,0h21.5v16.3h-21.5V0L495.6,0z"/>
		<path class="st0" d="M564.7,95.8c0,0-3.8,1.9-11.8,1.9c-16.7,0-23.7-9.7-23.7-25.9V38.1h-6.9V20h6.9V1.3h21.5V20H564v18.1h-13.4
			V71c0,5.3,3,6.9,6.5,6.9c1.4,0,2.7-0.3,4.1-0.6L564.7,95.8L564.7,95.8z"/>
	</g>
</g>
</svg>
