<!-- Generator: Adobe Illustrator 21.1.0, SVG Export Plug-In  -->
<svg version="1.1"
	 xmlns="http://www.w3.org/2000/svg" xmlns:xlink="http://www.w3.org/1999/xlink" viewBox="0 0 243.2 172.3" preserveAspectRatio="none">
<style type="text/css">
	.st0{fill:none;stroke:#231F20;stroke-miterlimit:10;}
</style>
<defs>
</defs>
<path class="st0" d="M3.2,18.9c4.6-6.6,9.6-12.7,15.1-18.4H9.4C6.3,4,3.3,7.6,0.5,11.4v8.8C1.6,20.1,2.5,19.8,3.2,18.9z"/>
<path class="st0" d="M242.7,16c-3.7-5.4-7.8-10.6-12.2-15.5h-8.7c8,8.3,15,17.5,20.9,27.3V16z"/>
<path class="st0" d="M0.5,171.8h2c-0.7-2.2-1.4-4.4-2-6.5V171.8z"/>
<path class="st0" d="M37.5,0.5H28C16.8,10.9,7.6,23.1,0.5,36.4v14.5C8.4,31.6,21,14.3,37.5,0.5z"/>
<path class="st0" d="M219.2,17.5c0.8,0.8,1.5,1.2,2.5,1.2c0.8,0,1.5-0.2,1.9-0.6c1.3-1.2,1.5-3.1,0.4-4.4
	c-3.9-4.7-8.1-9.1-12.5-13.2h-9.2C208.3,5.6,214,11.3,219.2,17.5z"/>
<path class="st0" d="M228.2,24.2c-1.5,1-1.9,2.9-1,4.4c6.7,10,11.8,20.8,15.4,32.2V43.1c-2.9-6.2-6.2-12.2-10.1-17.9
	C231.6,23.7,229.7,23.3,228.2,24.2z"/>
<path class="st0" d="M6.6,76.7C7,75,5.9,73.4,4.1,73.1c-1.7-0.4-3.2,0.7-3.6,2.4v56.4c1.9,13.5,5.1,26.9,9.4,39.9h6.4
	c-8-23.3-12-47.6-12-72.4C4.3,91.7,5.1,84,6.6,76.7z"/>
<path class="st0" d="M4.3,60.9c-0.6,1.7,0.2,3.5,1.9,4c0.4,0.2,0.6,0.2,1,0.2c1.3,0,2.5-0.8,3.1-2.1c8.8-26.7,26.6-48.5,49.5-62.6
	H48.5C28.3,15.2,12.6,36,4.3,60.9z"/>
<path class="st0" d="M234.3,82.9c0.2,1.2,1,2.1,2.1,2.5c1.8,0.6,3.9,1.3,6.2,1.9v-6.5c-0.8-0.2-1.6-0.5-2.4-0.8
	c-5.4-32.9-23.6-61-49.2-79.5h-11.5C208.5,17.9,229.2,47.6,234.3,82.9z"/>
<path class="st0" d="M199.4,25.4c-1.2-1.3-3.1-1.3-4.4-0.2c-1.3,1.2-1.3,3.1-0.2,4.4c15.9,17.1,25.6,39,27.3,62.1
	c0,1.2,0.8,2.1,1.7,2.7c4.1,2.1,11.2,4.6,18.9,6.5v-6.6c-5.7-1.5-11-3.3-14.7-4.9C225.9,65.8,215.7,43.1,199.4,25.4z"/>
<path class="st0" d="M58.3,13.7c1,1.3,2.9,1.7,4.4,0.8c9.5-6.4,19.7-11,30.4-13.9H74.8C69.3,3,64.1,5.9,59.1,9.3
	C57.7,10.2,57.4,12.1,58.3,13.7z"/>
<path class="st0" d="M186.3,21.6c0.6,0.6,1.3,0.8,2.1,0.8c0.8,0,1.7-0.4,2.1-1.2c1.2-1.3,1-3.3-0.4-4.4
	c-7.7-6.6-16.2-12.1-25.3-16.3h-18.4C161,4.5,174.7,11.6,186.3,21.6z"/>
<path class="st0" d="M52,22.9c1.2-1.2,1.3-3.1,0.2-4.4c-1.2-1.2-3.1-1.3-4.4-0.2C24.7,38.9,11.4,68.4,11.4,99.2
	c0,15.9,1.7,31.9,5.2,47.3c0.4,1.5,1.5,2.5,3.1,2.5c0.2,0,0.4,0,0.6,0.2c1.5-0.4,2.7-2.1,2.3-3.8c-3.3-15-5-30.6-5-45.9
	C17.6,70.4,30.1,42.5,52,22.9z"/>
<path class="st0" d="M23.9,161.8c-1.7,0.6-2.7,2.3-2.1,4c0.6,2,1.3,4,2,5.9h6.8c-1-2.6-1.9-5.2-2.7-7.8
	C27.4,162.2,25.7,161.3,23.9,161.8z"/>
<path class="st0" d="M215.3,97.5C214.2,45.8,171.7,4.1,120,4.1c-52.7,0-95.3,42.7-95.3,95.3c0,24.9,4.6,49.3,13.2,72.4h6.6
	c-8.9-23-13.6-47.5-13.6-72.4c0-49.2,40-89.2,89.2-89.2c48.6,0,88.6,39.6,89.2,88.6c0,0.6,0.2,1.2,0.6,1.7
	c3.4,4.9,18,10.8,32.9,14.2v-6.5C230.1,105.2,218.6,100.6,215.3,97.5z"/>
<path class="st0" d="M202.2,99.4c0-6.7-0.8-13.6-2.5-20.2c-0.4-1.7-2.1-2.7-3.8-2.3c-1.7,0.4-2.7,2.1-2.3,3.8
	c1.5,6,2.3,12.3,2.3,18.6c0,14.9,25.8,24.4,46.8,28.7v-6.4C222.7,117.5,202.2,108.8,202.2,99.4z"/>
<path class="st0" d="M120,17.5c-1.7,0-3.1,1.3-3.1,3.1s1.3,3.1,3.1,3.1c28.8,0,55,15.9,67.8,42.1c0.6,1.2,1.7,1.7,2.9,1.7
	c0.4,0,1-0.2,1.5-0.2c1.5-0.8,2.1-2.7,1.3-4.2C179.6,35,151.3,17.5,120,17.5z"/>
<path class="st0" d="M100.8,26.2c1.7-0.4,2.7-2.1,2.3-3.8c-0.4-1.7-2.1-2.7-3.8-2.3C63.1,29.4,38,62.1,37.8,99.6
	c0,24.9,4.7,49.1,14,72.2h7.1c-9.7-23.1-14.6-47.4-14.6-72.2C44.3,65,67.5,34.8,100.8,26.2z"/>
<path class="st0" d="M232,135.9c-0.4,1.7,0.6,3.5,2.3,3.8c2.9,0.7,5.7,1.2,8.3,1.7V135c-2.3-0.4-4.6-0.9-6.8-1.4
	C234.1,133.2,232.4,134.2,232,135.9z"/>
<path class="st0" d="M120,30.8c-25.2,0-48.4,13.8-60.5,35.9c-0.8,1.5-0.2,3.5,1.3,4.2c1.5,0.8,3.5,0.2,4.2-1.3
	c11-20.2,32.1-32.7,55-32.7c34.4,0,62.5,28.1,62.5,62.5c0,14.6,11.7,26.7,33.6,35c0.4,0.2,0.8,0.2,1.2,0.2c1.2,0,2.5-0.8,3.1-1.9
	c0.6-1.5-0.4-3.5-1.9-4c-13.5-5-29.6-14.2-29.6-29C188.8,61.7,158.1,30.8,120,30.8z"/>
<path class="st0" d="M58.7,87.3c0.4-1.7-0.8-3.3-2.5-3.7c-1.7-0.4-3.3,0.8-3.7,2.5c-1,4.4-1.3,8.8-1.3,13.3
	c0,25.1,5.3,49.6,15.1,72.4h6.9c-10.2-22.7-15.7-47.3-15.7-72.4C57.6,95.3,57.9,91.1,58.7,87.3z"/>
<path class="st0" d="M175.5,99.4c0-6.3-1-12.5-3.1-18.4c-0.6-1.7-2.3-2.5-4-1.9s-2.5,2.3-1.9,4c1.7,5.4,2.7,10.8,2.7,16.3
	c0,32.8,37.3,50,73.5,55.7v-6.6C219.8,144.6,175.5,132.6,175.5,99.4z"/>
<path class="st0" d="M120.2,43.8c-30.6,0-55.5,25-55.5,55.5c0,19,3.1,37.7,9.4,55.7c0.4,1.3,1.5,2.1,2.9,2.1c0.2,0,0.6,0,1.2,0
	c1.5-0.6,2.5-2.3,1.9-4c-6.1-17.5-9.2-35.5-9.2-53.8c0-27.1,22.1-49.2,49.4-49.2c15.2,0,29.4,6.9,38.8,19c1.2,1.3,3.1,1.7,4.4,0.6
	c1.3-1.2,1.7-3.1,0.6-4.4C153.4,51.7,137.5,43.8,120.2,43.8z"/>
<path class="st0" d="M162.3,99.4c0-20.6-14.6-38.2-35-41.7c-1.7-0.4-3.3,0.8-3.7,2.5c-0.4,1.7,0.8,3.3,2.5,3.7
	c17.3,3.1,29.8,18.1,29.8,35.5c0,41.6,43.5,62.7,86.7,69.1V162C218.4,158.1,162.3,144.1,162.3,99.4z"/>
<path class="st0" d="M109.1,65.2c1.7-0.6,2.7-2.3,2.1-4s-2.3-2.7-4-2.1c-17.5,5.6-29.4,21.9-29.4,40.4c0,25.3,6,49.9,17.6,72.4h6.8
	c-11.3-20.9-18.2-45.2-18.2-72.2C83.9,83.8,94.1,70,109.1,65.2z"/>
<path class="st0" d="M149,99.4c0-15.9-13.1-29-29-29s-29,13.1-29,29c0,25.4,6.7,50.2,19.4,72.4h7.5c-13.4-22.2-20.5-47.1-20.5-72.6
	c0-12.5,10.2-22.7,22.7-22.7c12.5,0,22.7,10.2,22.7,22.7c0,40.7,30.7,61.8,59.6,72.6h20.9C192.6,164.2,149,145.2,149,99.4z"/>
<path class="st0" d="M128.8,132.6c-0.8-1.5-2.5-2.3-4-1.7c-1.5,0.6-2.5,2.3-1.9,3.8c4.3,13.9,11,26.3,19.2,37.1h17.8
	C145.4,160.8,135,147.7,128.8,132.6z"/>
<path class="st0" d="M119.8,90.2c5.2,0,9.4,4.2,9.4,9.4c0,4.2,0.2,8.3,0.8,12.3c0.4,1.7,1.9,2.9,3.7,2.7c1.7-0.4,2.9-1.9,2.7-3.7
	c-0.6-3.7-0.8-7.5-0.8-11.3c0-8.6-7.1-15.8-15.8-15.8s-15.8,7.1-15.8,15.8c0,27.5,8.3,52,21.4,72.2h7.5
	c-13.8-20-22.6-44.5-22.6-72.2C110.4,94.4,114.6,90.2,119.8,90.2z"/>
<path class="st0" d="M140.9,127.1c-0.6-1.5-2.5-2.3-4-1.7c-1.5,0.6-2.3,2.5-1.7,4c7.6,19,21.7,32.7,37.4,42.4h12.7
	C167,162.5,149.4,148.3,140.9,127.1z"/>
</svg>
