<?xml version="1.0" encoding="utf-8"?>
<!-- Generator: Adobe Illustrator 21.1.0, SVG Export Plug-In . SVG Version: 6.00 Build 0)  -->
<svg version="1.1" id="Layer_1" xmlns="http://www.w3.org/2000/svg" xmlns:xlink="http://www.w3.org/1999/xlink" x="0px" y="0px"
	 viewBox="0 0 146.8 159.6" style="enable-background:new 0 0 146.8 159.6;" xml:space="preserve">
<style type="text/css">
	.st0{fill:none;stroke:#231F20;stroke-width:0.5;stroke-miterlimit:10;}
</style>
<path class="st0" d="M107,0c2.1,1.1,4.2,2.2,6.2,3.5c0.3,0.1,0.6,0.2,0.9,0.2c0.6,0,1.1-0.3,1.3-0.6c0.5-0.8,0.3-1.8-0.5-2.3
	c-0.4-0.3-0.9-0.5-1.3-0.8"/>
<path class="st0" d="M87.8,0c6.2,1.5,12.1,3.7,17.7,6.8c0.8,0.4,1.8,0.1,2.2-0.7c0.4-0.8,0.1-1.8-0.7-2.2c-2.7-1.5-5.5-2.8-8.4-3.9"
	/>
<path class="st0" d="M42.5,0C28.3,5.6,15.9,15.3,7,28.2C6.5,29,6.7,30,7.4,30.5c0.3,0.2,0.6,0.3,0.9,0.3c0.6,0,1.1-0.2,1.5-0.7
	C20.4,14.8,36,4.2,53.6,0"/>
<path class="st0" d="M112.9,7.4c-0.8-0.5-1.8-0.3-2.3,0.5s-0.3,1.8,0.5,2.3c13.1,8.6,23.3,21.4,28.8,35.9c0.2,0.7,0.8,1.1,1.5,1.1
	c0.2,0,0.4-0.1,0.5-0.2c0.9-0.3,1.3-1.3,1-2.1C137.2,29.7,126.6,16.4,112.9,7.4z"/>
<path class="st0" d="M3.5,72c0-21.3,9.9-40.9,27-53.7c0.7-0.5,0.8-1.6,0.3-2.3c-0.5-0.7-1.6-0.8-2.3-0.3C10.8,28.9,0.2,50,0.2,72
	c0,17.7,3.7,35,11,51.4c0.3,0.6,0.9,1,1.5,1c0.2,0,0.5-0.1,0.7-0.1c0.8-0.4,1.2-1.4,0.8-2.2C7.1,106.1,3.5,89.2,3.5,72z"/>
<path class="st0" d="M35.5,11c-0.8,0.4-1.1,1.4-0.6,2.2c0.4,0.8,1.4,1.1,2.2,0.6C47.3,8,58.8,4.9,70.5,4.9c20,0,38.8,8.9,51.7,24.5
	c0.4,0.4,0.8,0.6,1.3,0.6c0.4,0,0.8-0.1,1-0.3c0.7-0.6,0.8-1.6,0.2-2.3C111.2,11.1,91.4,1.7,70.5,1.7C58.2,1.7,46.1,4.9,35.5,11z"/>
<path class="st0" d="M144.3,57.4c-1.5-0.1-3.2-0.5-5.1-0.9c-1.9-8.2-5.3-16-10-23.1c-0.5-0.8-1.5-1-2.3-0.5s-1,1.5-0.5,2.3
	c4.7,7,7.9,14.8,9.7,23c0.1,0.6,0.6,1,1.2,1.2c2.4,0.6,4.7,1,6.6,1.2c0.1,0,0.2,0,0.2,0c0.8,0,1.6-0.7,1.7-1.4
	C145.9,58.3,145.2,57.5,144.3,57.4z"/>
<path class="st0" d="M10.4,72c0-4,0.4-8,1.2-11.8c0.2-0.9-0.4-1.7-1.3-1.9c-0.9-0.2-1.7,0.4-1.9,1.3C7.6,63.7,7.2,67.8,7.2,72
	c0,26.8,9,52.7,25.9,74.8c0.3,0.4,0.8,0.6,1.3,0.6c0.3,0,0.7-0.1,0.9-0.3c0.7-0.6,0.9-1.6,0.3-2.3C19.1,123.3,10.4,98.1,10.4,72z"/>
<path class="st0" d="M10.4,52c-0.3,0.9,0.1,1.8,1,2.1c0.2,0.1,0.3,0.1,0.5,0.1c0.7,0,1.3-0.4,1.6-1.1c7.7-23.3,28.5-39.5,53-41.3
	c0.9,0,1.6-0.8,1.5-1.7c0-0.9-0.8-1.6-1.7-1.5C40.5,10.4,18.6,27.4,10.4,52z"/>
<path class="st0" d="M130.1,63.4c0.1,0.6,0.5,1.1,1.1,1.3c3.4,1.2,9.1,2.6,13.5,2.8c0.9,0,1.6-0.7,1.7-1.5c0-0.9-0.7-1.7-1.6-1.7
	c-3.7-0.2-8.3-1.3-11.6-2.4c-4.9-29.8-30-52.1-60.2-53.3c-0.9,0-1.7,0.7-1.7,1.6c0,0.9,0.7,1.7,1.6,1.7
	C101.9,13.1,125.9,34.7,130.1,63.4z"/>
<path class="st0" d="M144.9,71.1c-6-0.2-14-2.5-18.1-4.3c-1.1-12.3-6.4-24.1-14.9-33.3c-0.6-0.7-1.6-0.7-2.3-0.1
	c-0.7,0.6-0.7,1.6-0.1,2.3c8.3,8.9,13.3,20.3,14.2,32.3c0,0.6,0.4,1.1,0.9,1.4c4,2,13.3,4.8,20.3,5c0.9,0,1.6-0.7,1.6-1.6
	C146.5,71.9,145.8,71.1,144.9,71.1z"/>
<path class="st0" d="M38.9,25.1c-0.7,0.5-0.9,1.5-0.4,2.3c0.5,0.7,1.5,0.9,2.3,0.4c8.9-6,19.1-9.1,29.8-9.1
	c12.6,0,24.9,4.6,34.5,12.8c0.3,0.3,0.7,0.4,1.1,0.4c0.4,0,0.9-0.2,1.1-0.6c0.6-0.7,0.5-1.7-0.2-2.3c-10.2-8.8-23.2-13.6-36.6-13.6
	C59.2,15.4,48.3,18.8,38.9,25.1z"/>
<path class="st0" d="M35.2,32.2c0.6-0.6,0.7-1.6,0.1-2.3c-0.6-0.6-1.6-0.7-2.3-0.1C21,40.5,14.1,55.9,14.1,71.9
	c0,8.3,0.9,16.6,2.7,24.6c0.2,0.8,0.8,1.3,1.6,1.3c0.1,0,0.2,0,0.3,0.1c0.8-0.2,1.4-1.1,1.2-2C18.2,88.1,17.3,80,17.3,72
	C17.3,56.9,23.8,42.4,35.2,32.2z"/>
<path class="st0" d="M22.7,105.6c-0.3-0.9-1.2-1.4-2.1-1.1c-0.9,0.3-1.4,1.2-1.1,2.1c3.8,11.8,9.5,23,17,33.4
	c0.3,0.5,0.8,0.7,1.3,0.7c0.4,0,0.7-0.1,1.1-0.3c0.8-0.5,0.9-1.6,0.4-2.3C32,128,26.4,117.1,22.7,105.6z"/>
<path class="st0" d="M44.5,145c-0.6-0.7-1.6-0.8-2.3-0.2c-0.7,0.6-0.8,1.6-0.2,2.3c2.4,2.9,5,5.7,7.6,8.3c0.4,0.3,0.8,0.5,1.2,0.5
	c0.5,0,0.9-0.2,1.1-0.6c0.6-0.6,0.6-1.7,0-2.3C49.3,150.5,46.8,147.8,44.5,145z"/>
<path class="st0" d="M144.7,78.1c-9.3-0.3-21.9-4.6-24.5-7.1c-0.6-26.9-22.7-48.6-49.6-48.6C43.2,22.4,21,44.6,21,72
	c0,33.1,15.4,64.7,42.4,86.7c0.3,0.3,0.6,0.4,1,0.4c0.5,0,1-0.2,1.2-0.6c0.6-0.7,0.5-1.7-0.2-2.3C39.2,134.8,24.2,104.1,24.2,72
	c0-25.6,20.8-46.4,46.4-46.4c25.3,0,46.1,20.6,46.4,46.1c0,0.3,0.1,0.6,0.3,0.9c2.6,3.7,17.4,8.5,27.3,8.8c0.9,0,1.7-0.7,1.7-1.6
	C146.3,78.9,145.6,78.1,144.7,78.1z"/>
<path class="st0" d="M144,84.9c-12-0.6-30.6-6.4-30.6-12.9c0-3.5-0.4-7.1-1.3-10.5c-0.2-0.9-1.1-1.4-2-1.2c-0.9,0.2-1.4,1.1-1.2,2
	c0.8,3.1,1.2,6.4,1.2,9.7c0,10.3,23.8,15.7,33.8,16.2c0.8,0,1.6-0.7,1.7-1.6C145.6,85.7,144.9,84.9,144,84.9z"/>
<path class="st0" d="M105.9,54.5c0.3,0.6,0.9,0.9,1.5,0.9c0.2,0,0.5-0.1,0.8-0.1c0.8-0.4,1.1-1.4,0.7-2.2
	c-7.3-14.6-22-23.7-38.3-23.7c-0.9,0-1.6,0.7-1.6,1.6c0,0.9,0.7,1.6,1.6,1.6C85.6,32.6,99.2,40.9,105.9,54.5z"/>
<path class="st0" d="M59.8,30.7c-18.8,4.9-31.9,21.9-32,41.4c0,15,3.3,29.6,9.8,43.3c0.3,0.6,0.9,0.9,1.5,0.9c0.3,0,0.5-0.1,0.8-0.1
	c0.8-0.4,1.2-1.4,0.8-2.2c-6.3-13.3-9.5-27.4-9.5-41.9c0-18,12.1-33.7,29.4-38.2c0.9-0.2,1.4-1.1,1.2-2C61.6,31,60.7,30.5,59.8,30.7
	z"/>
<path class="st0" d="M77,156.3c-13.5-9.2-24.8-21.5-32.8-35.5c-0.4-0.8-1.4-1.1-2.2-0.6c-0.8,0.4-1,1.4-0.6,2.2
	c8.2,14.4,19.9,27.1,33.8,36.6c0.3,0.2,0.6,0.3,0.9,0.3c0.5,0,1-0.2,1.3-0.7C77.9,157.8,77.7,156.8,77,156.3z"/>
<path class="st0" d="M142.9,91.7c-3.6-0.3-8-1-12-1.9c-0.9-0.2-1.8,0.3-2,1.2c-0.2,0.9,0.3,1.8,1.2,2c5.7,1.3,10.3,1.8,12.5,2h0.1
	c0.8,0,1.5-0.6,1.7-1.5C144.5,92.6,143.8,91.8,142.9,91.7z"/>
<path class="st0" d="M39.1,55c-0.4,0.8-0.1,1.8,0.7,2.2c0.8,0.4,1.8,0.1,2.2-0.7c5.7-10.5,16.7-17,28.6-17
	c17.9,0,32.5,14.6,32.5,32.5c0,7.6,6.1,13.9,17.5,18.2c0.2,0.1,0.4,0.1,0.6,0.1c0.6,0,1.3-0.4,1.6-1c0.3-0.8-0.2-1.8-1-2.1
	c-7-2.6-15.4-7.4-15.4-15.1c0-19.7-16-35.8-35.8-35.8C57.5,36.3,45.4,43.5,39.1,55z"/>
<path class="st0" d="M87.3,154.7C56.9,137.2,38.1,105.5,38.1,72c0-2.1,0.2-4.3,0.6-6.3c0.2-0.9-0.4-1.7-1.3-1.9
	c-0.9-0.2-1.7,0.4-1.9,1.3c-0.5,2.3-0.7,4.6-0.7,6.9c0,34.6,19.4,67.4,50.8,85.6c0.2,0.1,0.5,0.2,0.8,0.2c0.5,0,1.1-0.3,1.5-0.9
	C88.4,156.2,88.1,155.2,87.3,154.7z"/>
<path class="st0" d="M141,98.5C136.8,98.1,99.5,94,99.5,72c0-3.3-0.5-6.5-1.6-9.6c-0.3-0.9-1.2-1.3-2.1-1c-0.9,0.3-1.3,1.2-1,2.1
	c0.9,2.8,1.4,5.6,1.4,8.5c0,19,24,27.9,44.5,29.8c0.1,0,0.1,0,0.2,0c0.8,0,1.5-0.6,1.6-1.5C142.6,99.4,141.9,98.6,141,98.5z"/>
<path class="st0" d="M70.7,43.1c-15.9,0-28.9,13-28.9,28.9c0,9.9,1.6,19.6,4.9,29c0.2,0.7,0.8,1.1,1.5,1.1c0.1,0,0.3,0,0.6,0
	c0.8-0.3,1.3-1.2,1-2.1C46.6,90.9,45,81.5,45,72c0-14.1,11.5-25.6,25.7-25.6c7.9,0,15.3,3.6,20.2,9.9c0.6,0.7,1.6,0.9,2.3,0.3
	c0.7-0.6,0.9-1.6,0.3-2.3C88,47.2,79.7,43.1,70.7,43.1z"/>
<path class="st0" d="M96.1,151.7c-18-8.7-32.8-23.3-41.9-41.1c-0.4-0.8-1.4-1.1-2.2-0.7c-0.8,0.4-1.1,1.4-0.7,2.2
	c9.4,18.4,24.8,33.6,43.4,42.6c0.2,0.1,0.5,0.2,0.7,0.2c0.6,0,1.2-0.4,1.5-1C97.3,153.1,96.9,152.1,96.1,151.7z"/>
<path class="st0" d="M138.8,105.2c-7.7-0.8-46.2-6.5-46.2-33.2c0-10.7-7.6-19.9-18.2-21.7c-0.9-0.2-1.7,0.4-1.9,1.3s0.4,1.7,1.3,1.9
	c9,1.6,15.5,9.4,15.5,18.5c0,22.9,25.4,33.9,49.1,36.5c0.1,0,0.1,0,0.2,0c0.9,0,1.6-0.6,1.6-1.5
	C140.3,106.1,139.7,105.3,138.8,105.2z"/>
<path class="st0" d="M104.1,147.9c-26-10.3-52.3-37.8-52.3-75.8c0-8.2,5.3-15.4,13.1-17.9c0.9-0.3,1.4-1.2,1.1-2.1s-1.2-1.4-2.1-1.1
	c-9.1,2.9-15.3,11.4-15.3,21c0,17.6,5.6,34.6,16.3,49.2c9.7,13.3,23.2,23.8,38,29.7c0.2,0.1,0.4,0.1,0.6,0.1c0.7,0,1.3-0.4,1.5-1
	C105.4,149.2,104.9,148.2,104.1,147.9z"/>
<path class="st0" d="M111.2,143.1c-12.9-4-25.2-12.3-34.5-23.2c-0.6-0.7-1.6-0.8-2.3-0.2c-0.7,0.6-0.8,1.6-0.2,2.3
	c9.8,11.4,22.5,20,36,24.2c0.2,0.1,0.3,0.1,0.5,0.1c0.7,0,1.4-0.5,1.6-1.1C112.5,144.3,112.1,143.4,111.2,143.1z"/>
<path class="st0" d="M136,111.9c-11.8-1.5-50.3-8.8-50.3-39.9c0-8.3-6.8-15.1-15.1-15.1c-8.3,0-15.1,6.8-15.1,15.1
	c0,15.5,4.8,30.6,13.8,43.6c0.3,0.5,0.8,0.7,1.3,0.7c0.3,0,0.7-0.1,1-0.4c0.7-0.5,0.9-1.6,0.4-2.3c-8.6-12.5-13.2-26.9-13.2-41.7
	c0-6.5,5.3-11.8,11.8-11.8s11.8,5.3,11.8,11.8c0,33.8,40.7,41.6,53.2,43.2c0.9,0.1,1.7-0.5,1.8-1.4C137.5,112.8,136.9,112,136,111.9
	z"/>
<path class="st0" d="M123.3,131.7c-12.3-1.7-26.6-9.4-36.9-21.8c3.5,3,7.5,5.7,11.9,8.1c0.8,0.4,1.8,0.1,2.2-0.7
	c0.4-0.8,0.1-1.8-0.7-2.2c-12.1-6.6-20.3-15.3-24.6-25.8c-0.4-0.8-1.3-1.2-2.1-0.9c-0.8,0.3-1.3,1.2-1,2c8,25.7,31.6,41.8,50.7,44.5
	c0,0,0.1,0,0.2,0c0.8,0,1.5-0.6,1.7-1.3C124.8,132.7,124.2,131.8,123.3,131.7z"/>
<path class="st0" d="M128.6,124.8c-7.6-1.3-14.9-3.5-21.6-6.3c-0.9-0.3-1.8,0.1-2.2,0.9c-0.3,0.9,0.1,1.8,0.9,2.2
	c6.9,2.9,14.4,5.1,22.3,6.5c0.1,0,0.2,0,0.3,0c0.8,0,1.5-0.6,1.6-1.4C130.1,125.8,129.5,125,128.6,124.8z"/>
<path class="st0" d="M117.5,137.7C92.4,132,65.6,107,65.6,72.1c0-2.7,2.2-4.9,4.9-4.9s4.9,2.2,4.9,4.9c0,2.2,0.1,4.3,0.4,6.4
	c0.2,0.9,1,1.5,1.9,1.4c0.9-0.2,1.5-1,1.4-1.9c-0.3-1.9-0.4-3.9-0.4-5.9c0-4.5-3.7-8.2-8.2-8.2s-8.2,3.7-8.2,8.2
	c0,36.6,28.1,62.7,54.5,68.8c0.2,0,0.3,0,0.4,0c0.8,0,1.5-0.5,1.5-1.2C118.9,138.8,118.4,137.9,117.5,137.7z"/>
<path class="st0" d="M132.6,118.4c-9.5-1.4-41.5-7.9-51.1-32c-0.3-0.8-1.3-1.2-2.1-0.9c-0.8,0.3-1.2,1.3-0.9,2.1
	c10.3,25.8,43.7,32.6,53.7,34.1c0,0,0.1,0,0.2,0c0.8,0,1.5-0.5,1.6-1.4C134.1,119.4,133.5,118.5,132.6,118.4z"/>
</svg>
