<!-- Generator: Adobe Illustrator 21.1.0, SVG Export Plug-In  -->
<svg version="1.1"
	 xmlns="http://www.w3.org/2000/svg" xmlns:xlink="http://www.w3.org/1999/xlink" xmlns:a="http://ns.adobe.com/AdobeSVGViewerExtensions/3.0/"
	 x="0px" y="0px" width="517px" height="91.1px" viewBox="0 0 517 91.1" style="enable-background:new 0 0 517 91.1;"
	 xml:space="preserve">
<style type="text/css">
	.st0{fill:#FFFFFF;}
</style>
<defs>
</defs>
<g>
	<path class="st0" d="M0,68.8V2.1h27.6c15.7,0,22.8,11.1,22.8,22.3c0,11.2-7.2,22.2-22.8,22.2H16.2v22.3H0z M16.2,16.3v16.4h10.6
		c5.3,0,7.3-4.3,7.3-8.2s-1.9-8.1-7.3-8.1H16.2z"/>
	<path class="st0" d="M56.2,0h15.4v68.8H56.2V0z"/>
	<path class="st0" d="M113.1,23.7h15.4v45.1h-15.4v-5.1c-2.8,4-7.5,6-12.5,6c-11.1,0-22-8.9-22-23.5c0-14.6,10.8-23.6,22-23.6
		c4.5,0,9.7,2,12.5,6V23.7z M103.8,55.7c5.1,0,9.4-4.3,9.4-9.4c0-5.1-4.3-9.4-9.4-9.4c-5.1,0-9.4,4.3-9.4,9.4
		C94.4,51.4,98.6,55.7,103.8,55.7z"/>
	<path class="st0" d="M182.4,23.7l-27.9,67.4h-16.2l11.3-28.3L132,23.7h16.8l8.8,21.9l8.4-21.9H182.4z"/>
	<path class="st0" d="M212.8,0c5.1,0,9.2,3.8,9.2,8.7c0,4.8-4.1,8.8-9.2,8.8c-5,0-9.3-4-9.3-8.8C203.5,3.8,207.8,0,212.8,0z
		 M205.2,68.8h15.4V23.7h-15.4V68.8z"/>
	<path class="st0" d="M249.8,23.7h9.5V35h-9.5v33.8h-15.2V35h-8.2V23.7h8.2V7.5h15.2V23.7z"/>
	<path class="st0" d="M298.6,49c0.2,3.6,2.6,6.5,8.2,6.5c4.2,0,8.2-1.8,8.2-6c0-1.1,0-3.3-6.7-5.5l-7.8-2.6
		c-14.9-4.1-17.4-13.6-17.4-19.6c0-12.2,10-20.4,23.3-20.4c13.2,0,22.9,7.6,22.9,20.8h-16.2c0-3.6-2-6.2-7-6.2
		c-4.4,0-7.1,2.1-7.1,5.3c0,1.3,0.4,3.7,6.2,5.4L313,29c17.5,5.4,18.5,15.6,18.5,20.3c0,14.7-13.5,20.3-24.7,20.3
		c-14.9,0-24.6-8.1-24.6-20.7H298.6z"/>
	<path class="st0" d="M370.8,23.7h15.4v45.1h-15.4v-5.1c-2.8,4-7.5,6-12.5,6c-11.1,0-22-8.9-22-23.5c0-14.6,10.8-23.6,22-23.6
		c4.5,0,9.7,2,12.5,6V23.7z M361.4,55.7c5.1,0,9.4-4.3,9.4-9.4c0-5.1-4.3-9.4-9.4-9.4s-9.4,4.3-9.4,9.4
		C352,51.4,356.3,55.7,361.4,55.7z"/>
	<path class="st0" d="M427.9,14.6h-5.8c-3.6,0-6.2,2.3-6.3,7.5v1.6h9.5V35h-9.5v33.8h-15.4V35H392V23.7h8.4v-1.6
		c0-14.6,8.4-22.1,21.7-22.1h5.8V14.6z"/>
	<path class="st0" d="M474.7,50.5h-32.3c0.6,4.3,5.4,6.9,10.4,6.9c2.5,0,6-0.7,8.6-3.8c1.8,1.5,8.1,5.8,10.6,7.6
		c-4.7,6.3-13.3,8.4-20.4,8.4c-13,0-24-9.5-24-23.7c0-14.2,11-23.4,24-23.4c12.9,0,23.4,8.8,23.4,23C475,46.7,474.8,49.3,474.7,50.5
		z M460.4,41.9c-1.5-5.8-6.7-6.7-9-6.7c-2.3,0-7.8,0.9-9,6.7H460.4z"/>
	<path class="st0" d="M496.9,68.8h-15.4V23.7h14.6v11.1c2.3-8.6,8.4-12.3,14.2-12.3c1.9,0,4.2,0.1,6.7,1.3l-3.8,14.5
		c-3.2-1.2-5.6-1.2-7-1.2c-5.8,0-9.4,3.3-9.4,16.8V68.8z"/>
</g>
</svg>
